Coordinates
version=1
nRows=21
nColumns=22
inDegrees=yes

Units are S.I. units (second, meters, Newtons, ...)
If the header above contains a line with 'inDegrees', this indicates whether rotational values are in degrees (yes) or radians (no).

endheader
time	pelvis_tilt	pelvis_list	pelvis_rotation	pelvis_tx	pelvis_ty	pelvis_tz	hip_flexion_r	hip_adduction_r	hip_rotation_r	knee_angle_r	ankle_angle_r	subtalar_angle_r	hip_flexion_l	hip_adduction_l	hip_rotation_l	knee_angle_l	ankle_angle_l	subtalar_angle_l	lumbar_extension	lumbar_bending	lumbar_rotation
      2.63000000	     -0.09587195	      1.40431165	     -0.88748424	     -0.28435420	      1.04815122	     -0.30350307	      1.08760716	      1.55009343	     -1.69305429	    -28.72148799	     22.22445534	     -7.66304903	     25.93319994	     -1.14471983	    -14.44498064	    -19.19994115	      8.69569928	      3.24542530	    -10.42050617	     -3.37251923	     -1.90571373
      2.64000000	      0.13667801	      1.02812135	     -1.05790896	     -0.29363535	      1.04909341	     -0.30163809	      1.12567808	      2.05718429	     -1.61369487	    -28.19421628	     22.18496052	     -7.98981100	     26.04686279	     -1.91538842	    -14.49881014	    -20.74286455	      8.37348673	      2.61382844	    -10.75678731	     -3.04516314	     -1.97085758
      2.65000000	      0.35704134	      0.63935388	     -1.25248754	     -0.30266227	      1.05018960	     -0.29972848	      1.12672963	      2.58157506	     -1.50300928	    -27.60343281	     22.07664794	     -8.32936651	     26.10566134	     -2.69066504	    -14.28938972	    -22.35668164	      8.04079514	      1.94206742	    -11.04304754	     -2.72588927	     -2.02778169
      2.66000000	      0.56514728	      0.23532341	     -1.47104987	     -0.31143223	      1.05144263	     -0.29783288	      1.09053600	      3.11171266	     -1.40895879	    -26.94685871	     21.85524891	     -8.60933613	     26.10974233	     -3.46947404	    -13.88384999	    -24.02596283	      7.81717259	      1.36892680	    -11.27592704	     -2.40049496	     -2.06399219
      2.67000000	      0.74183949	     -0.17475299	     -1.71516970	     -0.32001963	      1.05282519	     -0.29596831	      1.05796683	      3.64026441	     -1.30984018	    -26.25975449	     21.53902181	     -8.84808039	     26.07384385	     -4.22939999	    -13.29102911	    -25.71232117	      7.66016784	      0.87502565	    -11.44370739	     -2.07559413	     -2.08010864
      2.68000000	      0.87866740	     -0.58212715	     -1.97592334	     -0.32846060	      1.05432456	     -0.29418387	      1.05218606	      4.15345511	     -1.21655956	    -25.56552913	     21.12591943	     -9.03797419	     26.00610440	     -4.95096652	    -12.54433441	    -27.39282644	      7.56336578	      0.45663017	    -11.54210550	     -1.75533720	     -2.08069296
      2.69000000	      0.96790506	     -0.97970374	     -2.24698540	     -0.33675542	      1.05593889	     -0.29251108	      1.08545161	      4.64401633	     -1.11995433	    -24.87157621	     20.60299290	     -9.17024369	     25.91272802	     -5.62074566	    -11.68191724	    -29.04875126	      7.50639863	      0.10308242	    -11.56195784	     -1.44284374	     -2.07692439
      2.70000000	      1.05944930	     -1.36212444	     -2.53478020	     -0.34490644	      1.05772248	     -0.29095727	      1.11594196	      5.10091103	     -1.02733257	    -24.19971009	     20.00007054	     -9.19791098	     25.73831519	     -6.24176709	    -10.77977803	    -30.67361835	      7.52269455	     -0.13560465	    -11.56630072	     -1.14290664	     -2.05917630
      2.71000000	      1.07024506	     -1.71580631	     -2.80075847	     -0.35295517	      1.05953019	     -0.28959307	      1.23122241	      5.51671327	     -0.95169143	    -23.53897255	     19.31319611	     -9.18685833	     25.58983521	     -6.78195062	     -9.81263716	    -32.26768543	      7.51347901	     -0.37236129	    -11.46187113	     -0.85891407	     -2.08133025
      2.72000000	      1.12296624	     -2.03303272	     -3.08691520	     -0.36086519	      1.06152604	     -0.28835487	      1.29474059	      5.87908862	     -0.85497387	    -22.88559339	     18.59251355	     -9.10433777	     25.31224276	     -7.25682376	     -8.88373446	    -33.80706804	      7.53714972	     -0.51141563	    -11.39307341	     -0.61213892	     -2.08331067
      2.73000000	      1.12395715	     -2.30003882	     -3.34637381	     -0.36866158	      1.06351482	     -0.28730536	      1.40419536	      6.18109235	     -0.77271551	    -22.22842128	     17.83080807	     -8.96908656	     25.02894502	     -7.63647126	     -7.95883312	    -35.30194184	      7.56724027	     -0.63173651	    -11.25052667	     -0.40350379	     -2.15181107
      2.74000000	      1.15559813	     -2.52304562	     -3.61457843	     -0.37635663	      1.06558178	     -0.28637178	      1.46909047	      6.42807295	     -0.68529762	    -21.56201842	     17.05524089	     -8.83267930	     24.64316398	     -7.95168375	     -7.11622190	    -36.74511692	      7.57550882	     -0.70632218	    -11.13637270	     -0.24038954	     -2.21226294
      2.75000000	      1.18088160	     -2.69377840	     -3.86747111	     -0.38394554	      1.06761199	     -0.28558248	      1.52316712	      6.61526115	     -0.60902125	    -20.87591402	     16.29351829	     -8.68517860	     24.20508215	     -8.18707566	     -6.34052952	    -38.13917359	      7.60028339	     -0.76005185	    -11.00443964	     -0.12523588	     -2.31432560
      2.76000000	      1.21396267	     -2.82614772	     -4.11160332	     -0.39144674	      1.06958561	     -0.28489093	      1.55087991	      6.76111523	     -0.53684061	    -20.16754979	     15.54188670	     -8.54590439	     23.70324245	     -8.36967114	     -5.65582727	    -39.48529026	      7.63045592	     -0.79917781	    -10.87661814	     -0.04837929	     -2.44263434
      2.77000000	      1.25487065	     -2.93186491	     -4.35020633	     -0.39887182	      1.07146517	     -0.28427835	      1.55444784	      6.87876105	     -0.47117865	    -19.44000415	     14.80543210	     -8.42912277	     23.14132734	     -8.51832334	     -5.07154289	    -40.78504251	      7.66075067	     -0.83427578	    -10.75508195	      0.00214597	     -2.58045550
      2.78000000	      1.30479040	     -3.02423196	     -4.58023480	     -0.40624045	      1.07321546	     -0.28374296	      1.53829115	      6.98358541	     -0.40091213	    -18.70585140	     14.09682378	     -8.33041101	     22.52330898	     -8.64572651	     -4.57229652	    -42.03979966	      7.70478855	     -0.87359898	    -10.64633296	      0.04245473	     -2.73168087
      2.79000000	      1.35727985	     -3.11375002	     -4.80614562	     -0.41357015	      1.07480502	     -0.28326595	      1.51593617	      7.08706305	     -0.32450372	    -17.97649910	     13.41467607	     -8.25340325	     21.85873024	     -8.76589604	     -4.15340263	    -43.24938134	      7.75111244	     -0.92283378	    -10.54636736	      0.08234466	     -2.88271544
      2.80000000	      1.40698288	     -3.21102554	     -5.02307790	     -0.42087338	      1.07620770	     -0.28286629	      1.50061319	      7.19955222	     -0.23887860	    -17.26524018	     12.76026969	     -8.19762105	     21.15715468	     -8.88662042	     -3.79962395	    -44.41394446	      7.79967839	     -0.98435590	    -10.45062185	      0.13804065	     -3.02859953
      2.81000000	      1.44370740	     -3.32347504	     -5.23007953	     -0.42818228	      1.07739357	     -0.28253931	      1.51488106	      7.32952587	     -0.14703169	    -16.59150640	     12.13359443	     -8.16112491	     20.43582132	     -9.01490508	     -3.49579818	    -45.53539803	      7.84536202	     -1.05285398	    -10.35317479	      0.21757464	     -3.16749325
      2.82000000	      1.46298112	     -3.45200713	     -5.42552185	     -0.43553229	      1.07834733	     -0.28229923	      1.57985010	      7.47817477	     -0.04636845	    -15.98223233	     11.53107697	     -8.13898285	     19.70498623	     -9.14696648	     -3.22714024	    -46.61278686	      7.88506556	     -1.11700177	    -10.25244355	      0.32416150	     -3.30575825
      2.83000000	      1.47380325	     -3.60884085	     -5.59874343	     -0.44286440	      1.07908089	     -0.28216525	      1.66723545	      7.65471051	      0.04355358	    -15.40744680	     10.97099380	     -8.13126720	     18.95332525	     -9.29445183	     -2.98687322	    -47.64142169	      7.93503726	     -1.17119654	    -10.15076509	      0.47226111	     -3.43112345
